<?xml version="1.0" standalone="no"?><!DOCTYPE svg PUBLIC "-//W3C//DTD SVG 1.1//EN" "http://www.w3.org/Graphics/SVG/1.1/DTD/svg11.dtd"><svg t="1646713412310" class="icon" viewBox="0 0 1024 1024" version="1.1" xmlns="http://www.w3.org/2000/svg" p-id="1597" xmlns:xlink="http://www.w3.org/1999/xlink" width="128" height="128"><defs><style type="text/css"></style></defs><path d="M958.708971 97.671507c0.00921-12.554944-5.593392-24.446785-15.255449-32.392758-9.657964-7.956206-22.350031-11.120268-34.594913-8.610098L384.945279 163.701362c-19.360953 3.955078-33.280987 21.072945-33.296337 40.941458l-0.329505 477.604632c-29.119201-16.737196-63.945381-25.944905-101.395318-25.944905-0.056282 0-0.102331 0-0.157589 0-47.749514 0-92.990904 15.038508-127.398552 43.521213-36.777625 30.447453-57.051367 67.602677-57.07695 111.974257-0.055259 88.38398 82.674954 156.37449 184.41615 156.37449 0.055259 0 0.101307 0 0.157589 0 47.759747 0 90.443895-11.95938 124.856659-40.442084 36.782741-30.443359 54.519708-69.159126 54.519708-113.514333l0 0.61603 0 0.309038 0 0.152473 2.845815-407.194002 442.041672-89.829911 0.473791 247.498884c-29.042453-16.597003-63.071478-23.818475-100.354616-23.818475-0.055259 0-0.11154 0-0.167822 0-47.749514 0-92.990904 13.145391-127.398552 41.624003-36.786835 30.442336-57.0616 68.539003-57.087183 112.914676-0.056282 88.38398 82.679048 157.331281 184.434569 157.331281 0.046049 0 0.081864 0 0.12689 0 97.022731 0 176.962388-63.573921 184.16237-146.287761 0.069585-0.984421 0.25378-5.492084 0.112564-16.951067L958.708971 97.671507zM324.453556 863.391069c-19.568684 16.198937-46.053895 21.61632-74.589812 21.61632-0.030699 0-0.066515 0-0.097214 0-54.95052 0-101.354386-31.69077-101.329826-73.255421 0.010233-18.933211 9.520841-35.062564 26.76969-49.341778 19.563568-16.194844 46.039569-22.942525 74.560136-22.942525 0.029676 0 0.066515 0 0.097214 0 54.970986 0 101.390201 33.026184 101.364619 74.600045C351.213014 832.993758 341.707522 849.111854 324.453556 863.391069zM434.70559 333.51391l0.065492-94.66708 440.756399-90.041736-0.065492 94.842065L434.70559 333.51391zM774.160815 770.655991c-0.024559 0-0.050142 0-0.075725 0-54.960753 0-101.370759-33.585933-101.344153-75.1557 0.00921-18.934235 9.520841-34.117029 26.773783-48.39215 19.563568-16.194844 46.039569-21.991874 74.570369-21.991874 0.034792 0 0.070608 0 0.106424 0 52.344159 0 102.06149 27.308973 102.06149 66.25089l0 11.796674C865.85826 742.070956 826.472228 770.655991 774.160815 770.655991z" p-id="1598" data-spm-anchor-id="a313x.7781069.0.i4" class="" fill="#ff3a3a"></path></svg>