<?xml version="1.0" standalone="no"?>
<!DOCTYPE svg PUBLIC "-//W3C//DTD SVG 20010904//EN"
 "http://www.w3.org/TR/2001/REC-SVG-20010904/DTD/svg10.dtd">
<svg version="1.0" xmlns="http://www.w3.org/2000/svg"
 width="1024.000000pt" height="1024.000000pt" viewBox="0 0 1024.000000 1024.000000"
 preserveAspectRatio="xMidYMid meet">
<metadata>
Created by potrace 1.14, written by Peter Selinger 2001-2017
</metadata>
<g transform="translate(0.000000,1024.000000) scale(0.100000,-0.100000)"
fill="#000000" stroke="none">
<path d="M3119 9616 c-2 -2 -67 -7 -144 -10 -77 -4 -156 -8 -175 -10 -19 -2
-71 -7 -115 -11 -162 -14 -434 -68 -575 -114 -158 -52 -489 -223 -558 -288 -6
-6 -21 -15 -32 -18 -11 -3 -20 -10 -20 -14 0 -5 -27 -28 -60 -52 -54 -39 -249
-233 -308 -306 -48 -59 -172 -252 -217 -338 -26 -49 -51 -94 -55 -100 -24 -34
-114 -285 -135 -375 0 -3 -5 -23 -10 -45 -4 -22 -9 -44 -10 -50 -3 -11 -34
-195 -40 -235 -2 -14 -7 -59 -10 -100 -4 -41 -8 -93 -10 -115 -17 -178 -20
-568 -20 -2320 0 -1769 4 -2211 19 -2305 3 -14 7 -65 11 -115 4 -49 15 -142
26 -205 11 -63 22 -128 25 -144 14 -80 73 -274 116 -376 29 -70 105 -217 129
-252 11 -14 19 -29 19 -33 0 -10 142 -216 177 -257 72 -84 267 -270 345 -329
48 -36 134 -92 190 -126 99 -58 260 -143 272 -143 3 0 25 -8 49 -19 55 -24
105 -44 109 -41 2 1 16 -4 32 -10 99 -37 399 -94 556 -105 47 -4 96 -8 110
-10 96 -16 519 -20 2300 -20 1784 0 2216 4 2310 19 14 2 63 7 110 11 160 11
356 48 535 100 87 25 248 85 283 105 9 6 28 15 42 20 82 33 288 163 395 248
100 81 256 235 312 309 26 35 51 63 55 63 5 0 8 6 8 14 0 8 3 16 8 18 38 16
287 493 297 568 1 3 9 32 19 65 22 73 41 147 51 200 5 22 9 45 10 50 2 6 5 28
9 50 11 71 18 120 21 136 2 9 6 52 10 95 4 43 9 95 10 114 17 167 20 573 20
2310 0 1756 -4 2212 -19 2310 -2 14 -7 65 -11 114 -3 49 -10 109 -15 135 -4
25 -11 66 -15 91 -17 121 -88 396 -115 449 -15 29 -60 131 -60 136 0 3 -11 23
-25 45 -14 22 -22 40 -19 40 4 0 1 8 -7 18 -8 9 -23 33 -33 52 -105 194 -313
444 -476 573 -36 28 -67 54 -70 58 -7 8 -152 105 -191 127 -19 11 -58 33 -86
50 -29 17 -53 29 -53 25 0 -3 -8 1 -17 9 -10 8 -34 22 -53 30 -19 9 -60 27
-90 40 -30 14 -67 28 -82 32 -15 3 -40 11 -55 18 -15 6 -32 12 -38 14 -21 5
-141 36 -178 45 -20 5 -54 12 -75 15 -20 3 -75 11 -122 19 -47 8 -112 16 -145
19 -33 3 -91 9 -130 12 -38 4 -99 9 -135 12 -77 6 -4175 14 -4181 8z"/>
</g>
</svg>
