<?xml version="1.0" standalone="no"?>
<!DOCTYPE svg PUBLIC "-//W3C//DTD SVG 20010904//EN"
 "http://www.w3.org/TR/2001/REC-SVG-20010904/DTD/svg10.dtd">
<svg version="1.0" xmlns="http://www.w3.org/2000/svg"
 width="1024.000000pt" height="1024.000000pt" viewBox="0 0 1024.000000 1024.000000"
 preserveAspectRatio="xMidYMid meet">
<metadata>
Created by potrace 1.14, written by Peter Selinger 2001-2017
</metadata>
<g transform="translate(0.000000,1024.000000) scale(0.100000,-0.100000)"
fill="#000000" stroke="none">
<path d="M2999 9916 c-2 -2 -78 -7 -168 -10 -90 -4 -167 -8 -170 -10 -3 -2
-42 -7 -86 -10 -92 -8 -147 -14 -190 -21 -16 -2 -52 -7 -80 -11 -27 -3 -52 -8
-55 -9 -3 -2 -26 -6 -50 -10 -97 -14 -306 -74 -388 -111 -29 -13 -55 -24 -58
-24 -12 0 -222 -108 -288 -149 -38 -22 -72 -41 -77 -41 -5 0 -9 -4 -9 -8 0 -5
-12 -15 -27 -22 -30 -15 -186 -134 -241 -184 -205 -184 -374 -410 -508 -676
-71 -142 -163 -370 -149 -370 2 0 -2 -17 -9 -39 -12 -32 -31 -117 -51 -221 -3
-14 -7 -36 -9 -50 -3 -14 -8 -50 -12 -80 -3 -30 -8 -66 -9 -80 -2 -14 -6 -60
-10 -104 -4 -43 -8 -87 -10 -98 -16 -81 -20 -586 -20 -2453 0 -1869 4 -2339
20 -2470 2 -16 7 -59 10 -95 44 -500 160 -843 409 -1215 33 -49 63 -92 66 -95
3 -3 23 -27 45 -55 70 -88 158 -179 265 -274 49 -44 52 -46 128 -102 37 -27
72 -53 77 -57 15 -12 108 -67 125 -75 8 -4 31 -17 50 -28 162 -99 455 -213
620 -243 14 -2 63 -11 110 -20 115 -21 186 -30 315 -41 44 -4 89 -9 100 -11
79 -15 579 -19 2455 -19 2031 0 2336 3 2503 25 40 5 106 12 147 16 219 19 510
89 668 160 29 13 55 24 59 24 13 0 148 64 165 78 9 7 22 14 30 16 7 1 24 9 38
17 14 9 66 41 116 73 50 31 109 70 130 87 22 16 54 42 73 57 19 15 49 41 67
57 17 17 54 50 80 75 117 108 243 268 341 432 65 108 183 347 183 371 0 8 3
17 7 20 30 31 119 388 138 557 8 68 9 76 20 180 4 36 8 75 10 88 16 101 20
596 20 2462 0 1858 -4 2302 -19 2455 -2 17 -7 64 -10 105 -4 41 -9 89 -11 105
-3 17 -9 68 -15 115 -7 46 -13 87 -15 90 -2 3 -6 26 -10 50 -3 25 -11 63 -17
85 -5 22 -12 47 -13 55 -52 230 -215 566 -388 799 -90 120 -271 312 -340 360
-12 8 -33 26 -47 39 -25 23 -212 152 -240 165 -8 4 -35 19 -60 33 -60 35 -238
124 -247 124 -5 0 -25 9 -46 20 -20 11 -37 17 -37 14 0 -4 -6 -2 -12 3 -16 12
-104 40 -245 78 -13 4 -35 8 -50 11 -16 2 -50 9 -78 14 -27 5 -66 12 -85 15
-19 3 -46 7 -60 10 -14 2 -54 7 -90 10 -36 4 -76 8 -90 10 -14 2 -61 7 -105
10 -44 4 -105 9 -135 12 -65 6 -4445 14 -4451 9z"/>
</g>
</svg>
